/* XPM */
static char *result[] = {
/* columns rows colors chars-per-pixel */
"64 64 62 1 ",
"  c #010101",
". c #080807",
"X c #0C0C0B",
"o c #10100F",
"O c #131312",
"+ c #191917",
"@ c #1C1C1A",
"# c #21211E",
"$ c #252522",
"% c #272824",
"& c #2A2A26",
"* c #2D2D2A",
"= c #32322D",
"- c #353531",
"; c #3A3A35",
": c #3D3D38",
"> c #3F403B",
", c #42423D",
"< c #464640",
"1 c #4A4A45",
"2 c #4E4E49",
"3 c #52524C",
"4 c #565651",
"5 c #5A5A52",
"6 c #5F5F59",
"7 c #63635C",
"8 c #676760",
"9 c #6C6C65",
"0 c #73746B",
"q c #77786E",
"w c #7C7C73",
"e c #808076",
"r c #83837A",
"t c #88897E",
"y c #8A8B81",
"u c #929387",
"i c #97978C",
"p c #99998E",
"a c #A1A296",
"s c #A5A699",
"d c #A7A89B",
"f c #ABAB9E",
"g c #ADAEA1",
"h c #AFB0A2",
"j c #B3B3A6",
"k c #B7B7A9",
"l c #BABBAD",
"z c #BFBFB2",
"x c #C1C2B3",
"c c #CCCCBD",
"v c #CECEC0",
"b c #D1D2C2",
"n c #DCDDCC",
"m c #DFDFD0",
"M c #E0E1CF",
"N c #E1E1D2",
"B c #E9E9D7",
"V c #EBECDA",
"C c #EFF0DE",
"Z c #F0F1DF",
"A c #F5F6E3",
"S c None",
/* pixels */
"SSSSSSSSSSSSSSSSSSSSSSSSSSSSS      SSSSSSSSSSSSSSSSSSSSSSSSSSSSS",
"SSSSSSSSSSSSSSSSSSSSSSSSSS     ..     SSSSSSSSSSSSSSSSSSSSSSSSSS",
"SSSSSSSSSSSSSSSSSSSSSSSS   +:279962:+   SSSSSSSSSSSSSSSSSSSSSSSS",
"SSSSSSSSSSSSSSSSSSSSSSS  +299999999992+  SSSSSSSSSSSSSSSSSSSSSSS",
"SSSSSSSSSSSSSSSSSSSSSS  <999999999999991. SSSSSSSSSSSSSSSSSSSSSS",
"SSSSSSSSSSSSSSSSSSSSS  299999999999999992  SSSSSSSSSSSSSSSSSSSSS",
"SSSSSSSSSSSSSSSSSSSS .39999961:%&:16999993  SSSSSSSSSSSSSSSSSSSS",
"SSSSSSSSSSSSSSSSSSS  :99996%        $69999:  SSSSSSSSSSSSSSSSSSS",
"SSSSSSSSSSSSSSSSSSS X9999*  @8ygdr6+  *8998X SSSSSSSSSSSSSSSSSSS",
"SSSSSSSSSSSSSSSSSS  <999$ OtCAAAAABnwO $9991  SSSSSSSSSSSSSSSSSS",
"SSSSSSSSSSSSSSSSSS O999% %NAAAAAAAAVmv% %999O SSSSSSSSSSSSSSSSSS",
"SSSSSSSSSSSSSSSSS  199: %MAAAAAAAAAACmv$ ;99,  SSSSSSSSSSSSSSSSS",
"SSSSSSSSSSSSSSSSS O999. bAAAAAAAAAAAAVNz X898. SSSSSSSSSSSSSSSSS",
"SSSSSSSSSSSSSSSS  199, 3AAAAAAAAAAAAAANm1 :991%SSSSSSSSSSSSSSSSS",
"SSSSSSSSSSSSSSSS O999. cAAAAAAAAAAAAAAVml X9999SSSSSSSSSSSSSSSSS",
"SSSSSSSSSSSSSSS  199< <AAAAxcAAAAAAcxAABm< <9996SSSSSSSSSSSSSSSS",
"SSSSSSSSSSSSSS  *999O lAAM=  5AAAA5  -NVmg O999;  SSSSSSSSSSSSSS",
"SSSSSSSSSSSSS  @999< ;AAA3 X. fAAd .. 1ANm- <998O  SSSSSSSSSSSSS",
"SSSSSSSSSSSS  X7994..lAAp .;# tAAy #;. uVNg  4997. SSSSSSSSSSSSS",
"SSSSSSSSSSSS .5996. uAAc. *:o hAAj o:= .vBmr .6994. SSSSSSSSSSSS",
"SSSSSSSSSSS  1999X 0AAn$ #:; .BAAB  -:$ $nNN8 o8991  SSSSSSSSSSS",
"SSSSSSSSSS  &999$ 3AAn% O::$ -AAAA- %::O $mNm1 %999&  SSSSSSSSSS",
"SSSSSSSSSS X899, #BAN$ O;::o eAAAAr O;::O %nmn# <998X SSSSSSSSSS",
"SSSSSSSSS  2999..xAA0 O;::; .NAAAAM. ;::;O 9Vmk..9992  SSSSSSSSS",
"SSSSSSSSS  7995 1AAAo -:::@ 5AAAAAA5 @:::- XABN1 5998  SSSSSSSSS",
"SSSSSSSSS O999< wAAAO ;::* .bABwwBAv. =::; oABmq ,999o SSSSSSSSS",
"SSSSSSSSS %999& jAAA< O;*. tAZ*  &AAt .*;O :AVms &999% SSSSSSSSS",
"SSSSSSSSS *999* dAAAc.    3AAr oX eAA2    .vAZNp *999* SSSSSSSSS",
"SSSSSSSSS +999< qAAAAb1O-tAAAO -- oCAAt-o1bAAVm9 1999@ SSSSSSSSS",
"SSSSSSSSS  9995 ;AAAAAAAAAAAAX    XAAAAAAAAAAVN- 5999X SSSSSSSSS",
"SSSSSSSSS  3999+ pAAAAAAAAAAAj-@@-jAAAAAAAAAABy O9995  SSSSSSSSS",
"SSSSSSSSSS ,9995 XbAAAAAAAAAAAAAAAAAAAAAAAAACzo 4999$ SSSSSSSSSS",
"SSSSSSSSSSS79999; .uAAAAAAAAAAVbbVAAAAAAAAAAt. -9994  SSSSSSSSSS",
"SSSSSSSSSSSS99999;  =9pnAAAAA0.  .0AAAAAnp9&  -9996O SSSSSSSSSSS",
"SSSSSSSSSSSSX+69995+    :kAAs .Xo. aAAk;    +59995X  SSSSSSSSSSS",
"SSSSSSSSSSSS   :899971-+ @BA5 %::% 3AB+ +-179997-.  SSSSSSSSSSSS",
"SSSSSSSSSSSSSS  .&799999- 0A: =::= :Aq =999996&    SSSSSSSSSSSSS",
"SSSSSSSSSSSSSSS    =79997 =A: -::- >A= 79998-.   SSSSSSSSSSSSSSS",
"SSSSSSSSSSSSSSSSSS  +8999X B7 &::* 7B X9999+  SSSSSSSSSSSSSSSSSS",
"SSSSSSSSSSSSSSSSSSS  -999% kt $::$ tk $999=  SSSSSSSSSSSSSSSSSSS",
"SSSSSSSSSSSSSSSSSS    199: eg @::+ fw :993    SSSSSSSSSSSSSSSSSS",
"SSSSSSSSSSSSSSSSS  O* .794 <b o::O b1 497. &X  SSSSSSSSSSSSSSSSS",
"SSSSSSSSSSSSSSSSS .23o +79.oC. ;: .Co 97@ O;;. SSSSSSSSSSSSSSSSS",
"SSSSSSSSSSSSSSSS  :55,. .*X c3 $$ 3c X*. X-::%  SSSSSSSSSSSSSSSS",
"SSSSSSSSSSSSSSSS X5555,O    px .. lp    +;::::. SSSSSSSSSSSSSSSS",
"SSSSSSSSSSSSSSSS @555553;#X -A,  :A- X#;32::::O SSSSSSSSSSSSSSSS",
"SSSSSSSSSSSSSSS  *555##554<. uZttZu .<555@+:::#  SSSSSSSSSSSSSSS",
"SSSSSSSSSSSSSSS  ,555 .5555% .3ss2. %5555. :::*  SSSSSSSSSSSSSSS",
"SSSSSSSSSSSSSSS  ,555..55553#.    .#35555  :::=  SSSSSSSSSSSSSSS",
"SSSSSSSSSSSSSSS  <555..555553,#OO#,455555..:::=  SSSSSSSSSSSSSSS",
"SSSSSSSSSSSSSSS  ,555..555555533355555555. :::=  SSSSSSSSSSSSSSS",
"SSSSSSSSSSSSSSS  <555  555555555555555555  :::=  SSSSSSSSSSSSSSS",
"SSSSSSSSSSSSSSS  ,555..555555555555555555. :::=  SSSSSSSSSSSSSSS",
"SSSSSSSSSSSSSSS  1555 .555555555555555555. :::=  SSSSSSSSSSSSSSS",
"SSSSSSSSSSSSSSSS-5555  555555555555555555  ,::=  SSSSSSSSSSSSSSS",
"SSSSSSSSSSSSSSSS55555..555555555555555555. :::=  SSSSSSSSSSSSSSS",
"SSSSSSSSSSSSSSSS,5555..555555555555555555  :::=  SSSSSSSSSSSSSSS",
"SSSSSSSSSSSSSSS  1555  555555555555555555. ,::=  SSSSSSSSSSSSSSS",
"SSSSSSSSSSSSSSS  ,555. 555555555555555555. :::=  SSSSSSSSSSSSSSS",
"SSSSSSSSSSSSSSS  <555..555555555555555555. :::=  SSSSSSSSSSSSSSS",
"SSSSSSSSSSSSSSS  ,555 .555555555555555555  :::=  SSSSSSSSSSSSSSS",
"SSSSSSSSSSSSSSS  <555. 555555555555555554..:::=  SSSSSSSSSSSSSSS",
"SSSSSSSSSSSSSSS  <555..555555555555555555. :::=  SSSSSSSSSSSSSSS",
"SSSSSSSSSSSSSSSS SSSS  SSSSSSSSSSSSSSSSSS .SSSS SSSSSSSSSSSSSSSS"
};