/* XPM */
static char *result[] = {
/* columns rows colors chars-per-pixel */
"64 64 144 2 ",
"   c #000000",
".  c #0B0504",
"X  c #060808",
"o  c #0C0D0E",
"O  c #110906",
"+  c #150708",
"@  c #170C08",
"#  c #1C0B0B",
"$  c #120607",
"%  c #141313",
"&  c #1D1C1B",
"*  c #181716",
"=  c #250D0E",
"-  c #280E0F",
";  c #22120C",
":  c #2B0F10",
">  c #2E1411",
",  c #2F1811",
"<  c #341214",
"1  c #3B1416",
"2  c #341B13",
"3  c #381D14",
"4  c #3F1518",
"5  c #3E2017",
"6  c #191F21",
"7  c #1B2123",
"8  c #292726",
"9  c #2A2827",
"0  c #202729",
"q  c #21282A",
"w  c #2E2C2B",
"e  c #262423",
"r  c #32302F",
"t  c #252E30",
"y  c #2A3436",
"u  c #2E383B",
"i  c #353332",
"p  c #3B3837",
"a  c #3E3B3A",
"s  c #383634",
"d  c #43171A",
"f  c #46181B",
"g  c #4A191D",
"h  c #501B1F",
"j  c #412217",
"k  c #422318",
"l  c #4E291D",
"z  c #552C1E",
"x  c #551D21",
"c  c #5F2025",
"v  c #592E20",
"b  c #5C3022",
"n  c #423F3E",
"m  c #632226",
"M  c #6D252A",
"N  c #75282D",
"B  c #7A292F",
"V  c #74272D",
"C  c #643424",
"Z  c #6E3A27",
"A  c #783F2B",
"S  c #7F2B31",
"D  c #44413F",
"F  c #313D40",
"G  c #344043",
"H  c #444240",
"J  c #4C4947",
"K  c #484543",
"L  c #49595E",
"P  c #565250",
"I  c #595553",
"U  c #5E5957",
"Y  c #5F5A58",
"T  c #625E5B",
"R  c #5B7176",
"E  c #676360",
"W  c #6D6866",
"Q  c #6A6563",
"!  c #706B68",
"~  c #76716E",
"^  c #7A7472",
"/  c #7E7976",
"(  c #842D33",
")  c #8A2F35",
"_  c #8E3037",
"`  c #943239",
"'  c #99343B",
"]  c #903137",
"[  c #A2373F",
"{  c #A4383F",
"}  c #84452F",
"|  c #854530",
" . c #934D36",
".. c #995037",
"X. c #9C5238",
"o. c #A4563B",
"O. c #AA593D",
"+. c #A63840",
"@. c #AB3A42",
"#. c #B33D45",
"$. c #B83E47",
"%. c #BF414A",
"&. c #857F7C",
"*. c #C4434C",
"=. c #CB454E",
"-. c #CF4650",
";. c #D14751",
":. c #D54952",
">. c #DA4A54",
",. c #88827F",
"<. c #86807D",
"1. c #657C82",
"2. c #6F898F",
"3. c #8B8682",
"4. c #938C89",
"5. c #908B87",
"6. c #97918D",
"7. c #9D9692",
"8. c #A8A29D",
"9. c #88A7AF",
"0. c #ACA5A1",
"q. c #B6AFAA",
"w. c #B9B1AC",
"e. c #B7B0AB",
"r. c #BDB6B1",
"t. c #C0B7B3",
"y. c #C2BAB5",
"u. c #C6BEB9",
"i. c #CCC2BD",
"p. c #98BBC4",
"a. c #9EC3CC",
"s. c #A0C6CF",
"d. c #A3C9D3",
"f. c #AAD2DC",
"g. c #B7E1EC",
"h. c #B9E4EF",
"j. c #CEC5C0",
"k. c #D3CAC5",
"l. c #D7CDC9",
"z. c #D9CECA",
"x. c #DBD2CC",
"c. c #E5DAD6",
"v. c #EADFDA",
"b. c None",
/* pixels */
"b.b.b.b.b.b.b.b.b.b.b.b.b.b.b.b.b.b.b.b.b.b.b.b.b.b.b.b.b.b.b.    b.b.b.b.b.b.b.b.b.b.b.b.b.b.b.b.b.b.b.b.b.b.b.b.b.b.b.b.b.b.b.",
"b.b.b.b.b.b.b.b.b.b.b.b.b.b.b.b.b.b.b.b.b.b.b.b.b.b.b.b.b.            b.b.b.b.b.b.b.b.b.b.b.b.b.b.b.b.b.b.b.b.b.b.b.b.b.b.b.b.b.",
"b.b.b.b.b.b.b.b.b.b.b.b.b.b.b.b.b.b.b.b.b.b.b.b.b.b.b.      d @.@.1       b.b.b.b.b.b.b.b.b.b.b.b.b.b.b.b.b.b.b.b.b.b.b.b.b.b.b.",
"b.b.b.b.b.b.b.b.b.b.b.b.b.b.b.b.b.b.b.b.b.b.b.b.b.      < #.>.>.>.>.+.<       b.b.b.b.b.b.                    b.b.b.b.b.b.b.b.b.",
"b.b.b.b.b.b.b.b.b.b.b.b.b.b.b.b.b.b.b.b.b.b.b.b.    = ` >.>.>.>.>.>.>.>.` #     b.b.b.b.                      b.b.b.b.b.b.b.b.b.",
"b.b.b.b.b.b.b.b.b.b.b.b.b.b.b.b.b.b.b.b.b.b.    . M :.>.>.>.>.>.>.>.>.>.>.:.V       b.b.    ,.w.i.i.u.i.u.T   b.b.b.b.b.b.b.b.b.",
"b.b.b.b.b.b.b.b.b.b.b.b.b.b.b.b.b.b.b.b.b.    < #.>.>.>.>.>.>.>.>.>.>.>.>.>.>.$.<     b.    7.l.v.v.v.v.v.W   b.b.b.b.b.b.b.b.b.",
"b.b.b.b.b.b.b.b.b.b.b.b.b.b.b.b.b.b.b.      ( >.>.>.>.>.>.>.>.>.>.>.>.>.>.>.>.>.>.B         7.k.v.v.v.v.v.W   b.b.b.b.b.b.b.b.b.",
"b.b.b.b.b.b.b.b.b.b.b.b.b.b.b.b.b.b.    = #.>.>.>.>.>.>.>.>.;.N N :.>.>.>.>.>.>.>.>.$.-     / l.v.v.v.v.v.W   b.b.b.b.b.b.b.b.b.",
"b.b.b.b.b.b.b.b.b.b.b.b.b.b.b.b.b.    x ;.>.>.>.>.>.>.>.>.' #     # ' >.>.>.>.>.>.>.>.;.x     ~ v.v.v.v.v.W   b.b.b.b.b.b.b.b.b.",
"b.b.b.b.b.b.b.b.b.b.b.b.b.b.b.b.b.> ] >.>.>.>.>.>.>.>.*.f     a n     f *.>.>.>.>.>.>.>.>.)     P c.v.v.v.W   b.b.b.b.b.b.b.b.b.",
"b.b.b.b.b.b.b.b.b.b.b.b.b.b.  [ >.>.>.>.>.>.>.>.>.>._ .   * 3.u.u.3.%   . _ >.>.>.>.>.>.>.>.#.#   r z.v.v.W   b.b.b.b.b.b.b.b.b.",
"b.b.b.b.b.b.b.b.b.b.b.b.b.    S >.>.>.>.>.>.>.>.=.d     P w.i.u.u.u.r.P     f =.>.>.>.>.>.>.>.=.<   e j.v.W   b.b.b.b.b.b.b.b.b.",
"b.b.b.b.b.b.b.b.b.b.b.b.    f :.>.>.>.>.>.>.>.+.+   % 4.u.i.u.k.k.u.u.u.5.%   + [ >.>.>.>.>.>.>.-.g   & u.W   b.b.b.b.b.b.b.b.b.",
"b.b.b.b.b.b.b.b.b.b.b.    x :.>.>.>.>.>.>.:.m     D w.u.u.i.c.v.v.c.i.u.u.e.n     m >.>.>.>.>.>.>.:.x   % n   b.b.b.b.b.b.b.b.b.",
"b.b.b.b.b.b.b.b.b.b.    m >.>.>.>.>.>.>.*.<   X / u.u.u.l.v.c.v.v.v.v.x.u.u.u.^ o   < *.>.>.>.>.>.>.>.m       b.b.b.b.b.b.b.b.b.",
"b.b.b.b.b.b.b.b.b.    M >.>.>.>.>.>.>.@.+   8 0.u.u.i.c.v.v.v.v.v.v.v.v.c.j.u.u.0.8   + @.>.>.>.>.>.>.>.m     b.b.b.b.b.b.b.b.b.",
"b.b.b.b.b.b.b.b.    m >.>.>.>.>.>.>.(     J r.u.u.l.v.v.v.v.v.v.v.v.v.v.v.c.l.i.u.y.J     ( >.>.>.>.>.>.>.c     b.b.b.b.b.b.b.b.",
"b.b.b.b.b.b.b.    g >.>.>.>.>.>.:.m   X ~ u.u.j.c.v.v.v.v.v.v.v.v.v.v.v.v.v.v.c.i.u.u.~ X   m :.>.>.>.>.>.>.x     b.b.b.b.b.b.b.",
"b.b.b.b.b.b.    d >.>.>.>.>.>.;.f   O 6.i.u.k.c.v.v.v.v.v.v.v.v.v.v.v.v.v.v.v.v.c.k.u.i.6.O   g :.>.>.>.>.>.>.1     b.b.b.b.b.b.",
"b.b.b.b.b.    : :.>.>.>.>.>.=.>   * 8.i.u.x.v.v.v.v.v.v.v.v.v.v.v.v.v.v.v.v.v.v.v.v.x.i.u.8.&   1 =.>.>.>.>.>.;.:     b.b.b.b.b.",
"b.b.b.b.b.  $ *.>.>.>.>.>.*.=   w q.u.i.c.c.v.v.v.v.v.v.v.v.v.v.v.v.v.v.v.v.v.v.v.v.c.c.i.u.q.w   = *.>.>.>.>.>.*.+   b.b.b.b.b.",
"b.b.b.b.    [ >.>.>.>.>.*.=   s r.i.j.c.v.v.v.v.v.v.v.v.v.v.v.v.v.v.v.v.v.v.v.v.v.v.v.v.c.i.u.t.a   # *.>.>.>.>.>.{     b.b.b.b.",
"b.b.b.    B >.>.>.>.>.$.=   a y.i.j.c.v.v.v.v.v.v.v.v.v.v.v.v.v.v.v.v.v.v.v.v.v.v.v.v.v.v.v.k.u.y.a   = *.>.>.>.>.>.N     b.b.b.",
"b.b.    1 >.>.>.>.>.*.#   H y.u.l.v.v.v.v.v.v.v.v.v.v.v.v.v.v.v.v.v.v.v.v.v.v.v.v.v.v.v.v.v.v.l.u.y.H   = =.>.>.>.>.>.d     b.b.",
"b.b.  . *.>.>.>.>.=.-   H y.u.x.v.v.v.v.v.v.v.v.v.v.v.v.v.v.v.v.v.v.v.v.v.v.v.v.v.v.v.v.v.v.v.v.z.u.u.H   = =.>.>.>.>.*..   b.b.",
"b.    ) >.>.>.>.;.1   i y.u.x.v.v.v.v.v.v.v.v.v.v.v.v.v.v.v.v.v.v.v.v.v.v.v.v.v.v.v.v.v.v.v.v.v.v.x.u.y.i   > ;.>.>.>.>._     b.",
"b.  d >.>.>.>.>.f   9 r.i.x.v.v.v.v.v.v.v.<.U U U U U U U U U U Y U U U U U U U U U ,.v.v.v.v.v.v.v.x.u.r.9   f >.>.>.>.>.d   b.",
"b.  + *.>.>.>.m   & q.u.x.v.v.v.v.v.v.v.x.                                            x.v.v.v.v.v.v.v.x.u.e.&   m >.>.>.*.+   b.",
"b.    - -.>.`     E u.u.c.v.v.v.v.v.v.v.z.  7 9.9.9.9.9.9.9.9.o o 9.9.9.9.9.9.9.9.7   z.v.v.v.v.v.v.v.v.x.u.E     ] >.;.-     b.",
"b.b.    1 #..     E u.u.c.v.v.v.v.v.v.v.z.  t h.h.h.h.h.h.h.h.o o h.h.h.h.h.h.h.h.t   z.v.v.v.v.v.v.v.v.v.z.E     . #.1     b.b.",
"b.b.b.            E u.u.c.v.v.v.v.v.v.v.z.  t h.h.h.h.h.h.h.h.o o h.h.h.h.h.h.h.h.t   z.v.v.v.v.v.v.v.v.v.v.!             b.b.b.",
"b.b.b.b.      b.  E u.u.v.v.v.v.v.v.v.v.z.  t h.h.h.h.h.h.h.h.o o h.h.h.h.h.h.h.h.t   z.v.v.v.v.v.v.v.v.v.v.^   b.      b.b.b.b.",
"b.b.b.b.b.  b.b.  E u.u.c.v.v.v.v.v.v.v.z.  t h.h.h.h.h.h.h.h.o o h.h.h.h.h.h.h.h.t   z.v.v.v.v.v.v.v.v.v.v.^   b.b.  b.b.b.b.b.",
"b.b.b.b.b.b.b.b.  E u.u.c.v.v.v.v.v.v.v.z.  t h.h.h.h.h.h.h.h.o o h.h.h.h.h.h.h.h.t   z.v.v.v.v.v.v.v.v.v.v.^   b.b.b.b.b.b.b.b.",
"b.b.b.b.b.b.b.b.  E u.u.c.v.v.v.v.v.v.v.z.  t h.h.h.h.h.h.h.h.o o h.h.h.h.h.h.h.h.t   z.v.v.v.v.v.v.v.v.v.v.^   b.b.b.b.b.b.b.b.",
"b.b.b.b.b.b.b.b.  E u.u.c.v.v.v.v.v.v.v.z.  q s.s.s.s.s.d.s.s.o o s.a.d.s.d.a.s.s.0   z.v.v.v.v.v.v.v.v.v.v.^   b.b.b.b.b.b.b.b.",
"b.b.b.b.b.b.b.b.  E u.u.c.v.v.v.v.v.v.v.z.                                            z.v.v.v.v.v.v.v.v.v.v.^   b.b.b.b.b.b.b.b.",
"b.b.b.b.b.b.b.b.  E u.u.c.v.v.v.v.v.v.v.z.  o F F F F F F F G     G F F F F F F F o   z.v.v.v.v.v.v.v.v.v.v.^   b.b.b.b.b.b.b.b.",
"b.b.b.b.b.b.b.b.  E u.u.c.v.v.v.v.v.v.v.z.  t h.h.h.h.h.h.h.h.o o h.h.h.h.h.h.h.h.t   x.v.v.v.v.v.v.v.v.v.v.^   b.b.b.b.b.b.b.b.",
"b.b.b.b.b.b.b.b.  E u.u.c.v.v.v.v.v.v.v.z.  t h.h.h.h.h.h.h.h.o o h.h.h.h.h.h.h.h.t   x.v.v.v.v.v.v.v.v.v.v.^   b.b.b.b.b.b.b.b.",
"b.b.b.b.b.b.b.b.  E u.u.c.v.v.v.v.v.v.v.z.  t h.h.h.h.h.h.h.h.o o h.h.h.h.h.h.h.h.t   l.v.v.v.v.v.v.v.v.v.v.^   b.b.b.b.b.b.b.b.",
"b.b.b.b.b.b.b.b.  E u.u.c.v.v.v.v.v.v.v.z.  t h.h.h.h.h.h.h.h.o o h.h.h.h.h.h.h.h.t   z.v.v.v.v.v.v.v.v.v.v.^   b.b.b.b.b.b.b.b.",
"b.b.b.b.b.b.b.b.  E u.u.v.v.v.v.v.v.v.v.z.  t h.h.h.h.h.h.h.h.o o h.h.h.h.h.h.h.h.t   z.v.v.v.v.v.v.v.v.v.v.^   b.b.b.b.b.b.b.b.",
"b.b.b.b.b.b.b.b.  E u.u.v.v.v.v.v.v.v.v.z.  t h.h.h.h.h.h.h.h.o o h.h.h.h.h.h.h.h.t   z.v.v.v.v.v.v.v.v.v.v.^   b.b.b.b.b.b.b.b.",
"b.b.b.b.b.b.b.b.  E u.u.c.v.v.v.v.v.v.v.z.  t h.h.h.h.h.h.h.h.o o h.h.h.h.h.h.h.h.t   z.v.v.v.v.v.v.v.v.v.v.^   b.b.b.b.b.b.b.b.",
"b.b.b.b.b.b.b.b.  I u.u.c.v.v.v.v.v.v.y.!   t h.h.h.h.h.h.h.h.o o h.h.h.h.h.h.h.h.t   ! y.v.v.v.v.v.v.v.v.v.E   b.b.b.b.b.b.b.b.",
"b.b.b.b.b.b.b.      K w.c.v.v.v.v.c.! X     q h.h.h.h.h.h.a.u     u a.h.h.h.h.h.h.q     X ! c.v.v.v.v.v.x.P       b.b.b.b.b.b.b.",
"b.b.b.b.b.      , O   % 7.v.v.v.w.9   . 2     G d.h.h.h.1.X   ; ;   X 1.g.h.h.d.G     2 .   9 w.v.v.v.7.%   O ,       b.b.b.b.b.",
"b.b.b.b.    O Z O.X.k     ,.v.q.    ,  .O.} #   o f.h.L   . v o.o.b     L h.f.o   # } O. .,     q.v.,.    k o.O.Z .     b.b.b.b.",
"b.b.b.b.  . X.O.O.O.O.C   T v.4.  j O.O.O.O.O.;   p.h.y   | O.O.O.O.|   y h.p.  ; O.O.O.O.O.j   4.v.T   C O.O.O.O.X..   b.b.b.b.",
"b.b.b.b.  + O.O.O.O.O.A   p 3.I   z O.O.O.O.O.2   R 2.6   ..O.O.O.O...  7 2.R   2 O.O.O.O.O.z   I 3.p   A O.O.O.O.O.O   b.b.b.b.",
"b.b.b.b.  O O.O.O.O.O.A           z O.O.O.O.O.2           ..O.O.O.O...          2 O.O.O.O.O.z           A O.O.O.O.O.O   b.b.b.b.",
"b.b.b.b.  O O.O.O.O.O.A   ; l 2   z O.O.O.O.O.2   k l +   ..O.O.O.O...  O l k   2 O.O.O.O.O.z   2 l ;   A O.O.O.O.O..   b.b.b.b.",
"b.b.b.b.  . O.O.O.O.O.A   5  .v   z O.O.O.O.O.2   A  .;   ..O.O.O.O...  ;  .A   2 O.O.O.O.O.z   v  .5   A O.O.O.O.O.O   b.b.b.b.",
"b.b.b.b.  O O.O.O.O.O.A   5  .b   z O.O.O.O.O.2   A  .;   ..O.O.O.O...  ;  .A   2 O.O.O.O.O.z   b  .5   A O.O.O.O.O.O   b.b.b.b.",
"b.b.b.b.  . O.O.O.O.O.A   5  .b   z O.O.O.O.O.2   A  .;   ..O.O.O.O...  ;  .A   2 O.O.O.O.O.z   b  .5   A O.O.O.O.O.;   b.b.b.b.",
"b.b.b.b.  O O.O.O.O.O.A   5  .b   z O.O.O.O.O.2   A  .;   ..O.O.O.O...  ;  .A   2 O.O.O.O.O.z   b  .5   A O.O.O.O.O...b.b.b.b.b.",
"b.b.b.b.  O O.O.O.O.O.A   . O .   z O.O.O.O.O.2   O O .   ..O.O.O.O...    O O   2 O.O.O.O.O.z   . O .   A O.O.O.O.O.O.b.b.b.b.b.",
"b.b.b.b.  O O.O.O.O.O.A           z O.O.O.O.O.2           ..O.O.O.O...          2 O.O.O.O.O.z           A O.O.O.O.O.v   b.b.b.b.",
"b.b.b.b.  O O.O.O.O.O.A   T v.4.  z O.O.O.O.O.2   t.v.i   ..O.O.O.O...  s v.t.  2 O.O.O.O.O.v   4.v.T   A O.O.O.O.O.O   b.b.b.b.",
"b.b.b.b.  O O.O.O.O.O.A   T v.4.  z O.O.O.O.O.2   t.v.i   ..O.O.O.O...  i v.t.  2 O.O.O.O.O.v   4.v.T   A O.O.O.O.O.O   b.b.b.b.",
"b.b.b.b.    @ @ @ @ @ O   o & %   . @ @ O @ # .   * & X   @ @ @ # @ O   X & &   . @ @ @ + @ X   % , o   O @ @ @ @ @     b.b.b.b.",
"b.b.b.b.                                                                                                                b.b.b.b."
};