/* XPM */
static char *result[] = {
/* columns rows colors chars-per-pixel */
"64 64 133 2 ",
"   c #34B95F",
".  c #3CB95C",
"X  c #06B26B",
"o  c #0BB56C",
"O  c #0AB86F",
"+  c #1FB967",
"@  c #15B76A",
"#  c #19B869",
"$  c #0CBB71",
"%  c #11B671",
"&  c #1EB979",
"*  c #26B965",
"=  c #2BBA63",
"-  c #24BB7C",
";  c #5FB64D",
":  c #4DB755",
">  c #48B857",
",  c #42B859",
"<  c #6DB546",
"1  c #63B74B",
"2  c #69B548",
"3  c #70B545",
"4  c #79B441",
"5  c #3DC05C",
"6  c #24D77D",
"7  c #24D87E",
"8  c #33D675",
"9  c #3AD771",
"0  c #5BC44F",
"q  c #55C451",
"w  c #5CCC5E",
"e  c #72C744",
"r  c #7EC24A",
"t  c #6BC555",
"y  c #6CD555",
"u  c #64D559",
"i  c #75D450",
"p  c #48CD69",
"a  c #51CC64",
"s  c #4BD667",
"d  c #51D564",
"f  c #96B134",
"g  c #9BB131",
"h  c #9DBA39",
"j  c #A3AF2D",
"k  c #AEAE28",
"l  c #B5AD24",
"z  c #B9AD23",
"x  c #A6B02C",
"c  c #AAB731",
"v  c #C2AB1E",
"b  c #DEA710",
"n  c #D2A916",
"m  c #DAAA14",
"M  c #DEB213",
"N  c #E6A70D",
"B  c #EAA60B",
"V  c #E6A90E",
"C  c #EAA80C",
"Z  c #F0A607",
"A  c #FFA300",
"S  c #FFAC00",
"D  c #FFB200",
"F  c #92C13F",
"G  c #9DD239",
"H  c #AFC928",
"J  c #B5CA24",
"K  c #AED22F",
"L  c #A4D335",
"P  c #AAD231",
"I  c #D9CF16",
"U  c #CDD01D",
"Y  c #D6D017",
"T  c #D4D019",
"R  c #E7CF0E",
"E  c #EECF0A",
"W  c #FFC300",
"Q  c #F4CE06",
"!  c #FFCE00",
"~  c #F1CF09",
"^  c #C5D122",
"/  c #C8D120",
"(  c #86D345",
")  c #8CD343",
"_  c #82D348",
"`  c #1FD781",
"'  c #1DD882",
"]  c #37C088",
"[  c #3CC18C",
"{  c #23D983",
"}  c #29DA89",
"|  c #34DC8F",
" . c #3CDD93",
".. c #4AC594",
"X. c #56C99B",
"o. c #4DE09C",
"O. c #52E19F",
"+. c #62CCA2",
"@. c #77D2AF",
"#. c #7BD3B1",
"$. c #66E5AA",
"%. c #6DE6AE",
"&. c #79E8B5",
"*. c #91DABE",
"=. c #84EABB",
"-. c #9DDCC6",
";. c #8EEBC0",
":. c #96EDC5",
">. c #9AEEC7",
",. c #9FEECA",
"<. c #ACE1CF",
"1. c #BDE4DA",
"2. c #AFF1D3",
"3. c #B3F2D5",
"4. c #BFF4DC",
"5. c #C2E6DC",
"6. c #C3F5DE",
"7. c #C9E7E1",
"8. c #CDE9E4",
"9. c #D1E9E6",
"0. c #DEEDEE",
"q. c #CDF7E4",
"w. c #DAF9EA",
"e. c #E1EDEF",
"r. c #E2FAEF",
"t. c #E5EEF2",
"y. c #E9EDF5",
"u. c #E6FBF1",
"i. c #EDFCF5",
"p. c #F1FDF7",
"a. c #F5FDFA",
"s. c #FFFFFF",
"d. c None",
/* pixels */
"d.d.d.d.d.d.d.d.d.d.d.d.d.d.d.d.d.d.d.d.d.d.d.d.d.d.d.! ! ! ! ! ! ! ! ! ! d.d.d.d.d.d.d.d.d.d.d.d.d.d.d.d.d.d.d.d.d.d.d.d.d.d.d.",
"d.d.d.d.d.d.d.d.d.d.d.d.d.d.d.d.d.d.d.d.d.d.! ! ! ! ! ! ! ! ! ! ! ! ! ! ! ! ! ! ! ! d.d.d.d.d.d.d.d.d.d.d.d.d.d.d.d.d.d.d.d.d.d.",
"d.d.d.d.d.d.d.d.d.d.d.d.d.d.d.d.d.d.d.d.! ! ! ! ! ! ! ! ! ! ! ! ! ! ! ! ! ! ! ! ! ! ! ! d.d.d.d.d.d.d.d.d.d.d.d.d.d.d.d.d.d.d.d.",
"d.d.d.d.d.d.d.d.d.d.d.d.d.d.d.d.d.! ! ! ! ! ! ! ! ! ! ! ! ! ! ! ! ! ! ! ! ! ! ! ! ! ! ! ! ! ! d.d.d.d.d.d.d.d.d.d.d.d.d.d.d.d.d.",
"d.d.d.d.d.d.d.d.d.d.d.d.d.d.d.d.! ! ! ! ! ! ! ! ! ! ! ! ! ! ! ! ! ! ! ! ! ! ! ! ! ! ! ! ! ! ! ! d.d.d.d.d.d.d.d.d.d.d.d.d.d.d.d.",
"d.d.d.d.d.d.d.d.d.d.d.d.d.d.! ! ! ! ! ! ! ! ! ! ! ! ! ! ! ! ! ! ! ! ! ! ! ! ! ! ! ! ! ! ! ! ! ! ! ! d.d.d.d.d.d.d.d.d.d.d.d.d.d.",
"d.d.d.d.d.d.d.d.d.d.d.d.d.! ! ! ! ! ! ! ! ! ! ! ! ! ! ! ! ! ! ! ! ! ! ! ! ! ! ! ! ! ! ! ! ! ! ! ! ! ! d.d.d.d.d.d.d.d.d.d.d.d.d.",
"d.d.d.d.d.d.d.d.d.d.d.! ! ! ! ! ! ! ! ! ! ! ! ! Y _ G Y ! ! ! ! ! ! ! ! J 0 5 H ! ! ! ! ! ! ! ! ! ! ! ! ! d.d.d.d.d.d.d.d.d.d.d.",
"d.d.d.d.d.d.d.d.d.d.! ! ! ! ! ! ! ! ! ! ! ! ! ! d ' ' ' 9 y G K e q 5 O X X X # W ! ! ! ! ! ! ! ! ! ! ! ! ! d.d.d.d.d.d.d.d.d.d.",
"d.d.d.d.d.d.d.d.d.! ! ! ! ! ! ! ! ! ! ! ! ! ! ! 9 ' ' ' ' ' ' ' o X X X X X X o A W ! ! ! ! ! ! ! ! ! ! ! ! ! d.d.d.d.d.d.d.d.d.",
"d.d.d.d.d.d.d.d.! ! ! ! ! ! ! ! ! ! ! ! ! ! ! ! s ' ' ' ' ' ' ' X X X X X X X @ A A W ! ! ! ! ! ! ! ! ! ! ! ! ! d.d.d.d.d.d.d.d.",
"d.d.d.d.d.d.d.! ! ! ! ! ! ! ! ! ! ! ! ! ! ! ! ! y ' ' ' ' ' ' ' X X X X X X X = A A S W ! ! ! ! ! ! ! ! ! ! ! ! ! d.d.d.d.d.d.d.",
"d.d.d.d.d.d.d.! ! ! ! ! ! ! ! ! ! ! ! ! ! ! ! ! P ' ' ' ' ' ' ' X X X X X X X 2 A A A A W ! ! ! ! ! ! ! ! ! ! ! ! d.d.d.d.d.d.d.",
"d.d.d.d.d.d.! ! ! ! ! ! ! ! ! ! ! ! ! ! ! ! ! ! E 7 ' ' ' ' ' ' X X X X X X X m A A A A A W ! ! ! ! ! ! ! ! ! ! ! ! d.d.d.d.d.d.",
"d.d.d.d.d.! ! ! ! ! ! ! ! ! ! ! ! ! ! ! ! ! ! ! ! u ' ' ' ' ' ' X X X X X X * A A A A A A A W ! ! ! ! ! ! ! ! ! ! ! ! d.d.d.d.d.",
"d.d.d.d.d.! ! ! ! ! ! ! ! ! ! ! ! ! ! ! ! ! ! ! ! Y ' ' ' ' ' ' X X X X X X k A A A A A A A S W ! ! ! ! ! ! ! ! ! ! ! d.d.d.d.d.",
"d.d.d.d.! ! ! ! ! ! ! ! ! ! ! ! ! ! ! ! ! ! ! ! ! ! y ' ' ' ' ' X X X X X = A A A A A A A A A A W ! ! ! ! ! ! ! ! ! ! ! d.d.d.d.",
"d.d.d.! ! ! ! ! ! ! ! ! ! ! ! ! ! ! ! ! ! ! ! ! ! ! ~ 9 ' ' ' ' X X X X o b A A A A A A A A A A A W ! ! ! ! ! ! ! ! ! ! d.d.d.d.",
"d.d.d.! ! ! ! ! ! ! ! ! ! ! ! ! ! ! ! ! ! ! ! ! ! ! ! U 6 ' ' ' X X X o j A A A A A A A A A A A A S W ! ! ! ! ! ! ! ! ! ! d.d.d.",
"d.d.d.! ! ! ! ! ! ! ! ! ! ! ! ! ! ! ! ! ! ! ! ! ! R ( 9 ' ' ' ' X X o o o , n A A A A A A A A A A A A W ! ! ! ! ! ! ! ! ! d.d.d.",
"d.d.! ! ! ! ! ! ! ! ! ! ! ! ! ! ! ! ! ! ! ! ! Q _ 6 ' ' ' ' ' ' $ $ X X X X X . B A A A A A A A A A A A W ! ! ! ! ! ! ! ! ! d.d.",
"d.d.! ! ! ! ! ! ! ! ! ! ! ! ! ! ! ! ! ! ! ! ^ 9 ' ' ' ' ' ' ' ' X X X X X X X X o g A A A A A A A A A A A W ! ! ! ! ! ! ! ! d.d.",
"d.! ! ! ! ! ! ! ! ! ! ! ! ! ! ! ! ! ! ! ! G { ' ' ' ' ' ' ' ' ' X X X X X X X X X X ; A A A A A A A A A A A W ! ! ! ! ! ! ! ! d.",
"d.! ! ! ! ! ! ! ! ! ! ! ! ! ! ! ! ! ! ! ) ' ' ' ' ' ' ' ' ' ' ' X X X X X X X X X X X , A A A A A A A A A A A W ! ! ! ! ! ! ! d.",
"d.! ! ! ! ! ! ! ! ! ! ! ! ! ! ! ! ! ! ) ' ' ' ' ' ' ' ' ' ' ' ' X X X X X X X X X X X X > A A A A A A A A A A A W ! ! ! ! ! ! d.",
"d.! ! ! ! ! ! ! ! ! ! ! ! ! ! ! ! ! L ' ' ' ' ' ' ' ' ' ' ' ' ' X X X X X X X X X X X X X 2 A A A A A A A A A A S W ! ! ! ! ! d.",
"! ! ! ! ! ! ! ! ! ! ! ! ! ! ! ! ! T 7 ' ' ' ' ' ' ' ' ' ' ' &.=.<.-.o X X X X X X X X X X X j A A A A A A A A A A A W ! ! ! ! d.",
"! ! ! ! ! ! ! ! ! ! ! ! ! ! ! ! Q 9 ' ' ' ' ' ' ' ' ' ' ' ' r.s.y.y.X X X X X X X X X X X X o B A A A A A A A A A A A W ! ! ! ! ",
"! ! ! ! ! ! ! ! ! ! ! ! ! ! ! ! _ ' ' ' ' ' ' ' ' ' ' ' ' ' r.s.y.y.X X X X X X X X X X X X X , A A A A A A A A A A A A W ! ! ! ",
"! ! ! ! ! ! ! ! ! ! ! ! ! ! ! I { ' ' ' ' ' ' ' ' ' ' } =.q.s.s.y.y.t.1...X X X X X X X X X X X z A A A A A A A A A A A A W ! ! ",
"! ! ! ! ! ! ! ! ! ! ! ! ! ! ! u ' ' ' ' ' ' ' ' ' ' o.r.s.s.s.s.y.y.y.y.y.8.- X X X X X X X X X * A A A A A A A A A A A A S W ! ",
"! ! ! ! ! ! ! ! ! ! ! ! ! ! Y ' ' ' ' ' ' ' ' ' '  .p.s.s.s.s.s.y.y.y.y.y.y.0.X X X X X X X X X X l A A A A A A A A A A A A A W ",
"! ! ! ! ! ! ! ! ! ! ! ! ! ! i ' ' ' ' ' ' ' ' ' ` 3.s.s.s.w.a.s.y.y.y.y.y.y.+.X X X X X X X X X X   A A A A A A A A A A A A A A ",
"! ! ! ! ! ! ! ! ! ! ! ! ! Q 7 ' ' ' ' ' ' ' ' ' ` a.s.s.s.| r.s.y.t.% -.y.<.X X X X X X X X X X X X N A A A A A A A A A A A A A ",
"! ! ! ! ! ! ! ! ! ! ! ! ! K ' ' ' ' ' ' ' ' ' ' } s.s.s.a.} r.s.y.t.X X ] o X X X X X X X X X X X X 4 A A A A A A A A A A A A A ",
"! ! ! ! ! ! ! ! ! ! ! ! ! u ' ' ' ' ' ' ' ' ' ' ' a.s.s.s.r.a.s.y.y.X X X X X X X X X X X X X X X X * A A A A A A A A A A A A A ",
"! ! ! ! ! ! ! ! ! ! ! ! ! 8 ' ' ' ' ' ' ' ' ' ' ' 3.s.s.s.s.s.s.y.y.#.% X X X X X X X X X X X X X X X A A A A A A A A A A A A S ",
"d.! ! ! ! ! ! ! ! ! ! ! R ' ' ' ' ' ' ' ' ' ' ' '  .i.s.s.s.s.s.y.y.y.y.1.& X X X X X X X X X X X X X n A A A A A A A A A A A D ",
"d.! ! ! ! ! ! ! ! ! ! ! ^ ' ' ' ' ' ' ' ' ' ' ' ' '  .6.s.s.s.s.y.y.y.y.y.y.[ X X X X X X X X X X X X f A A A A A A A A A A A D ",
"d.! ! ! ! ! ! ! ! ! ! ! P ' ' ' ' ' ' ' ' ' ' ' ' ' ' ' O.>.s.s.y.y.y.y.y.y.t.X X X X X X X X X X X X 3 A A A A A A A A A A A d.",
"d.! ! ! ! ! ! ! ! ! ! ! G ' ' ' ' ' ' ' ' ' ' ' ' ' ' ' ' ' u.s.y.y.y.y.y.y.y...X X X X X X X X X X X ; A A A A A A A A A A A d.",
"d.! ! ! ! ! ! ! ! ! ! ! G ' ' ' ' ' ' ' ' ' ' ' ' ' ` ' ' ' r.s.y.y...y.y.y.y.-.X X X X X X X X X X X 1 A A A A A A A A A A D d.",
"d.d.! ! ! ! ! ! ! ! ! ! P ' ' ' ' ' ' ' ' ' ' ' ' } q.O.' ' u.s.y.y.X 7.y.y.e.-.X X X X X X X X X X X 3 A A A A A A A A A A d.d.",
"d.d.! ! ! ! ! ! ! ! ! ! U ' ' ' ' ' ' ' ' ' ' ' ` 2.s.s.:.| w.s.y.y...y.y.y.t.X.X X X X X X X X X X X g A A A A A A A A A S d.d.",
"d.d.d.! ! ! ! ! ! ! ! ! E ' ' ' ' ' ' ' ' ' ' ' %.s.s.s.s.s.s.s.y.y.y.y.y.y.t.X X X X X X X X X X X X N A A A A A A A A A D d.d.",
"d.d.d.! ! ! ! ! ! ! ! ! ! s ' ' ' ' ' ' ' ' ' '  .w.s.s.s.s.s.s.y.y.y.y.y.y.+.X X X X X X X X X X X @ A A A A A A A A A A d.d.d.",
"d.d.d.! ! ! ! ! ! ! ! ! ! L ' ' ' ' ' ' ' ' ' ' ' { ;.p.s.s.s.s.y.y.y.y.y.+.X X X X X X X X X X X X 1 A A A A A A A A A D d.d.d.",
"d.d.d.d.! ! ! ! ! ! ! ! ! Q 8 ' ' ' ' ' ' ' ' ' ' ' ' { $.:.a.s.y.y.5.@.o X X X X X X X X X X X X o B A A A A A A A A A d.d.d.d.",
"d.d.d.d.d.! ! ! ! ! ! ! ! ! P ' ' ' ' ' ' ' ' ' ' ' ' ' ' ' u.s.y.y.X X X X X X X X X X X X X X X < A A A A A A A A A D d.d.d.d.",
"d.d.d.d.d.! ! ! ! ! ! ! ! ! ! u ' ` ' ' ' ' ' ' ' ' ' ' ' ' 2.4.0.9.X X X X X X X X X X X X X X * A A A A A A A A A S d.d.d.d.d.",
"d.d.d.d.d.d.! ! ! ! ! ! ! ! ! Q s ` ' ' ' ' ' ' ' ' ' ' ' ' ' ' X X X X X X X X X X X X X X X @ B A A A A A A A A A d.d.d.d.d.d.",
"d.d.d.d.d.d.d.! ! ! ! ! ! ! ! ! Q w ' { ' ' ' ' ' ' ' ' ' ' ' ' X X X X X X X X X X X X X X + N A A A A A A A A A D d.d.d.d.d.d.",
"d.d.d.d.d.d.d.! ! ! ! ! ! ! ! ! ! W ) 6 ' ' ' ' ' ' ' ' ' ' ' ' X X X X X X X X X X X X X : A A A A A A A A A A D d.d.d.d.d.d.d.",
"d.d.d.d.d.d.d.d.! ! ! ! ! ! ! ! ! ! W m t ` ' ' ' ' ' ' ' ' ' ' X X X X X X X X X X X = v A A A A A A A A A A S d.d.d.d.d.d.d.d.",
"d.d.d.d.d.d.d.d.d.! ! ! ! ! ! ! ! ! ! ! S N h p ' ' ' ' ' ' ' ' X X X X X X X X @ > v A A A A A A A A A A A S d.d.d.d.d.d.d.d.d.",
"d.d.d.d.d.d.d.d.d.d.! ! ! ! ! ! ! ! ! ! ! S A A m c r a 8 { ' ' X X o X @ . 2 l A A A A A A A A A A A A A S d.d.d.d.d.d.d.d.d.d.",
"d.d.d.d.d.d.d.d.d.d.d.! ! ! ! ! ! ! ! ! ! ! S A A A A A A A A C n Z A A A A A A A A A A A A A A A A A A D d.d.d.d.d.d.d.d.d.d.d.",
"d.d.d.d.d.d.d.d.d.d.d.d.d.! ! ! ! ! ! ! ! ! ! S A A A A A A A A A A A A A A A A A A A A A A A A A A A D d.d.d.d.d.d.d.d.d.d.d.d.",
"d.d.d.d.d.d.d.d.d.d.d.d.d.d.! ! ! ! ! ! ! ! ! ! S A A A A A A A A A A A A A A A A A A A A A A A A S d.d.d.d.d.d.d.d.d.d.d.d.d.d.",
"d.d.d.d.d.d.d.d.d.d.d.d.d.d.d.d.! ! ! ! ! ! ! ! ! S A A A A A A A A A A A A A A A A A A A A A A D d.d.d.d.d.d.d.d.d.d.d.d.d.d.d.",
"d.d.d.d.d.d.d.d.d.d.d.d.d.d.d.d.d.d.! ! ! ! ! ! ! ! S A A A A A A A A A A A A A A A A A A S D d.d.d.d.d.d.d.d.d.d.d.d.d.d.d.d.d.",
"d.d.d.d.d.d.d.d.d.d.d.d.d.d.d.d.d.d.d.d.! ! ! ! ! ! ! S A A A A A A A A A A A A A A A S D d.d.d.d.d.d.d.d.d.d.d.d.d.d.d.d.d.d.d.",
"d.d.d.d.d.d.d.d.d.d.d.d.d.d.d.d.d.d.d.d.d.d.! ! ! ! ! W S A A A A A A A A A A A S S d.d.d.d.d.d.d.d.d.d.d.d.d.d.d.d.d.d.d.d.d.d.",
"d.d.d.d.d.d.d.d.d.d.d.d.d.d.d.d.d.d.d.d.d.d.d.d.d.d.d.! ! S A A A A S S S S D d.d.d.d.d.d.d.d.d.d.d.d.d.d.d.d.d.d.d.d.d.d.d.d.d."
};
