/* XPM */
static char *result[] = {
/* columns rows colors chars-per-pixel */
"64 64 13 1 ",
"  c black",
". c #2F2A29",
"X c #2F2C28",
"o c #302B2A",
"O c #312E28",
"+ c #322E28",
"@ c #322C2A",
"# c #4B453D",
"$ c #494140",
"% c #F67D0A",
"& c #F2661E",
"* c #F05A29",
"= c #F98800",
/* pixels */
"*******$#=====%&*******$#=====%&*******$#=====%&*******$#=====%&",
"*******  ===%&*********  ===%&*********  ===%&*********  ===%&**",
"*******  =%&***********  =%&***********  =%&***********  =%&****",
".                                                              o",
"O                                                              @",
"============%&*  ===========%&*  ===========%&*  ===========%&**",
"==========%&***  =========%&***  =========%&***  =========%&****",
"========%&*****  =======%&*****  =======%&*****  =======%&******",
"======%&*******  =====%&*******  =====%&*******  =====%&********",
"====%&*********  ===%&*********  ===%&*********  ===%&**********",
"==%&***********  =%&***********  =%&***********  =%&************",
"X                                                              o",
"O                                                              +",
"====%&*  ===========%&*  ===========%&*  ===========%&*  =======",
"==%&***  =========%&***  =========%&***  =========%&***  =======",
"%&*****  =======%&*****  =======%&*****  =======%&*****  =======",
"*******  =====%&*******  =====%&*******  =====%&*******  =====%&",
"*******  ===%&*********  ===%&*********  ===%&*********  ===%&**",
"*******  =%&***********  =%&***********  =%&***********  =%&****",
".                                                              o",
"O                                                              @",
"============%&*  ===========%&*  ===========%&*  ===========%&**",
"==========%&***  =========%&***  =========%&***  =========%&****",
"========%&*****  =======%&*****  =======%&*****  =======%&******",
"======%&*******  =====%&*******  =====%&*******  =====%&********",
"====%&*********  ===%&*********  ===%&*********  ===%&**********",
"==%&***********  =%&***********  =%&***********  =%&************",
"X                                                              o",
"O                                                              +",
"====%&*  ===========%&*  ===========%&*  ===========%&*  =======",
"==%&***  =========%&***  =========%&***  =========%&***  =======",
"%&*****  =======%&*****  =======%&*****  =======%&*****  =======",
"*******  =====%&*******  =====%&*******  =====%&*******  =====%&",
"*******  ===%&*********  ===%&*********  ===%&*********  ===%&**",
"*******  =%&***********  =%&***********  =%&***********  =%&****",
".                                                              o",
"O                                                              @",
"============%&*  ===========%&*  ===========%&*  ===========%&**",
"==========%&***  =========%&***  =========%&***  =========%&****",
"========%&*****  =======%&*****  =======%&*****  =======%&******",
"======%&*******  =====%&*******  =====%&*******  =====%&********",
"====%&*********  ===%&*********  ===%&*********  ===%&**********",
"==%&***********  =%&***********  =%&***********  =%&************",
"X                                                              o",
"O                                                              +",
"====%&*  ===========%&*  ===========%&*  ===========%&*  =======",
"==%&***  =========%&***  =========%&***  =========%&***  =======",
"%&*****  =======%&*****  =======%&*****  =======%&*****  =======",
"*******  =====%&*******  =====%&*******  =====%&*******  =====%&",
"*******  ===%&*********  ===%&*********  ===%&*********  ===%&**",
"*******  =%&***********  =%&***********  =%&***********  =%&****",
".                                                              o",
"O                                                              @",
"============%&*  ===========%&*  ===========%&*  ===========%&**",
"==========%&***  =========%&***  =========%&***  =========%&****",
"========%&*****  =======%&*****  =======%&*****  =======%&******",
"======%&*******  =====%&*******  =====%&*******  =====%&********",
"====%&*********  ===%&*********  ===%&*********  ===%&**********",
"==%&***********  =%&***********  =%&***********  =%&************",
"X                                                              o",
"O                                                              +",
"====%&*  ===========%&*  ===========%&*  ===========%&*  =======",
"==%&***  =========%&***  =========%&***  =========%&***  =======",
"%&*****o+=======%&*****o+=======%&*****o+=======%&*****o+======="
};
